HIERARCHY
ROOT joint_Root
{
	OFFSET 0.0 0.0 0.0
	CHANNELS 6 Xposition Yposition Zposition Zrotation Xrotation Yrotation 
	JOINT Hips
	{
		OFFSET 4.5925 91.4895 -427.239
		CHANNELS 6 Xposition Yposition Zposition Zrotation Xrotation Yrotation 
		JOINT Spine
		{
			OFFSET 15.7357 0.0 0.0
			CHANNELS 6 Xposition Yposition Zposition Zrotation Xrotation Yrotation 
			JOINT Chest
			{
				OFFSET 8.98455 -0.406207 0.0
				CHANNELS 6 Xposition Yposition Zposition Zrotation Xrotation Yrotation 
				JOINT Neck
				{
					OFFSET 16.3773 0.0 0.0
					CHANNELS 6 Xposition Yposition Zposition Zrotation Xrotation Yrotation 
					JOINT Head
					{
						OFFSET 6.45672 0.0 0.0
						CHANNELS 6 Xposition Yposition Zposition Zrotation Xrotation Yrotation 
						End Site
						{
							OFFSET 0.0 0.0 0.0
						}
					}
				}
				JOINT Shoulder_L
				{
					OFFSET 12.9942 -0.242716 4.98039
					CHANNELS 6 Xposition Yposition Zposition Zrotation Xrotation Yrotation 
					JOINT UpperArm_L
					{
						OFFSET 5.34809 0.0 0.0
						CHANNELS 6 Xposition Yposition Zposition Zrotation Xrotation Yrotation 
						JOINT LowerArm_L
						{
							OFFSET 24.3286 1.87007e-05 0.0
							CHANNELS 6 Xposition Yposition Zposition Zrotation Xrotation Yrotation 
							JOINT Hand_L
							{
								OFFSET 22.2916 0.0 0.0
								CHANNELS 6 Xposition Yposition Zposition Zrotation Xrotation Yrotation 
								End Site
								{
									OFFSET 0.0 0.0 0.0
								}
							}
						}
					}
				}
				JOINT Shoulder_R
				{
					OFFSET 12.9945 -0.242716 -4.98039
					CHANNELS 6 Xposition Yposition Zposition Zrotation Xrotation Yrotation 
					JOINT UpperArm_R
					{
						OFFSET -5.34813 0.0 0.0
						CHANNELS 6 Xposition Yposition Zposition Zrotation Xrotation Yrotation 
						JOINT LowerArm_R
						{
							OFFSET -24.3289 0.000322201 0.0
							CHANNELS 6 Xposition Yposition Zposition Zrotation Xrotation Yrotation 
							JOINT Hand_R
							{
								OFFSET -22.2915 -0.000108084 0.0
								CHANNELS 6 Xposition Yposition Zposition Zrotation Xrotation Yrotation 
								End Site
								{
									OFFSET 0.0 0.0 0.0
								}
							}
						}
					}
				}
			}
		}
		JOINT UpperLeg_L
		{
			OFFSET -2.19248 -6.46944 0.0
			CHANNELS 6 Xposition Yposition Zposition Zrotation Xrotation Yrotation 
			JOINT LowerLeg_L
			{
				OFFSET 39.0811 0.0 -1.23785e-05
				CHANNELS 6 Xposition Yposition Zposition Zrotation Xrotation Yrotation 
				JOINT Foot_L
				{
					OFFSET 40.9854 0.0 -1.26872e-05
					CHANNELS 6 Xposition Yposition Zposition Zrotation Xrotation Yrotation 
					JOINT Toes_L
					{
						OFFSET 11.7543 0.0 0.0
						CHANNELS 6 Xposition Yposition Zposition Zrotation Xrotation Yrotation 
						End Site
						{
							OFFSET 0.0 0.0 0.0
						}
					}
				}
			}
		}
		JOINT UpperLeg_R
		{
			OFFSET -2.19251 6.46944 0.0
			CHANNELS 6 Xposition Yposition Zposition Zrotation Xrotation Yrotation 
			JOINT LowerLeg_R
			{
				OFFSET -39.0811 -0.00228153 -0.0401928
				CHANNELS 6 Xposition Yposition Zposition Zrotation Xrotation Yrotation 
				JOINT Foot_R
				{
					OFFSET -40.9854 0.0 0.0
					CHANNELS 6 Xposition Yposition Zposition Zrotation Xrotation Yrotation 
					JOINT Toes_R
					{
						OFFSET -11.7543 0.0 0.0
						CHANNELS 6 Xposition Yposition Zposition Zrotation Xrotation Yrotation 
						End Site
						{
							OFFSET 0.0 0.0 0.0
						}
					}
				}
			}
		}
	}
}
MOTION
Frames:	4
Frame Time:	0.0333333
0.000000 0.000000 0.000000 0.000000 0.000000 -0.000000 -0.642347 91.358700 -1.096020 90.344800 -1.137310 13.649000 15.735700 0.000005 -0.000001 87.636100 80.026700 -88.749500 8.984550 -0.406207 -0.000000 12.157100 -0.857961 -2.135090 16.377300 -0.000001 -0.000001 15.407700 -1.894120 -3.773770 6.456720 -0.000001 -0.000000 1.199080 -1.032160 -2.528240 12.994200 -0.242716 4.980390 -91.597200 6.138770 -75.385500 5.348090 -0.000007 -0.000001 -62.498200 36.203100 -16.246200 24.328600 0.000019 0.000005 10.853800 24.877200 -24.502400 22.291600 -0.000001 0.000005 9.194300 5.302000 0.016125 12.994500 -0.242716 -4.980390 88.786300 9.603280 -82.762200 -5.348130 -0.000001 -0.000004 -62.416500 34.886100 -13.129100 -24.328900 0.000322 -0.000009 2.116060 5.427710 -21.346700 -22.291500 -0.000108 -0.000004 14.650100 5.451450 -4.691320 -2.192480 -6.469440 -0.000000 -174.740000 -14.158100 4.521020 39.081100 -0.000007 -0.000012 -0.114365 0.219276 27.544800 40.985400 -0.000006 -0.000013 1.971790 9.686000 -68.279700 11.754300 -0.000000 0.000003 -0.000198 -0.001836 -16.646800 -2.192510 6.469440 -0.000001 169.827000 24.445200 -173.191000 -39.081100 -0.002282 -0.040193 -0.170391 0.335250 27.389700 -40.985400 0.000008 0.000006 4.261790 19.279600 -69.519400 -11.754300 -0.000006 -0.000006 -0.001744 -0.025465 -17.608600
0.000000 0.000000 0.000000 0.000000 0.000000 -0.000000 -0.452257 91.346700 -1.131840 90.368400 -1.185430 13.758600 15.735700 0.000005 -0.000001 87.704000 80.000500 -88.884600 8.984550 -0.406207 -0.000000 12.210300 -0.839681 -2.270930 16.377300 -0.000001 -0.000001 15.794800 -1.759750 -4.105850 6.456720 -0.000001 -0.000000 1.306310 -0.735915 -3.460610 12.994200 -0.242716 4.980390 -91.581000 6.068410 -75.367700 5.348090 -0.000007 -0.000001 -62.622600 36.165400 -16.288300 24.328600 0.000019 0.000005 10.914600 24.758500 -24.723600 22.291600 -0.000001 0.000005 9.258550 5.303600 -0.028795 12.994500 -0.242716 -4.980390 88.789500 9.334330 -82.577200 -5.348130 -0.000001 -0.000004 -62.545100 33.047300 -12.872900 -24.328900 0.000322 -0.000009 2.142430 5.199230 -22.442000 -22.291500 -0.000108 -0.000004 14.722600 5.454170 -4.789380 -2.192480 -6.469440 -0.000000 -174.889000 -14.188200 4.576470 39.081100 -0.000007 -0.000012 -0.108650 0.207616 27.624200 40.985400 -0.000006 -0.000013 2.112870 9.606370 -68.335800 11.754300 -0.000000 0.000003 -0.000207 -0.001909 -16.649500 -2.192510 6.469440 -0.000001 169.760000 24.081000 -173.202000 -39.081100 -0.002282 -0.040193 -0.167935 0.329349 27.472000 -40.985400 0.000008 0.000006 4.066980 19.047900 -69.458900 -11.754300 -0.000006 -0.000006 -0.001783 -0.025968 -17.629000
0.000000 0.000000 0.000000 0.000000 0.000000 -0.000000 -0.236392 91.324000 -1.191110 90.405600 -1.319880 13.776900 15.735700 0.000005 -0.000001 87.841500 80.013100 -89.097000 8.984550 -0.406207 -0.000000 12.187000 -0.793888 -2.425780 16.377300 -0.000001 -0.000001 16.285200 -1.604550 -4.442640 6.456720 -0.000001 -0.000000 1.466820 -0.415023 -4.407660 12.994200 -0.242716 4.980390 -91.578300 6.057120 -75.365800 5.348090 -0.000007 -0.000001 -62.710400 36.104200 -16.207700 24.328600 0.000019 0.000005 11.037600 24.687500 -25.033600 22.291600 -0.000001 0.000005 9.164350 5.301660 0.025944 12.994500 -0.242716 -4.980390 88.793500 9.045310 -82.369900 -5.348130 -0.000001 -0.000004 -62.445600 30.282100 -12.647800 -24.328900 0.000322 -0.000009 2.209020 4.957900 -24.063700 -22.291500 -0.000108 -0.000004 15.017600 5.453900 -4.779650 -2.192480 -6.469440 -0.000000 -175.094000 -14.219500 4.483280 39.081100 -0.000007 -0.000012 -0.106695 0.202608 27.771800 40.985400 -0.000006 -0.000013 2.230920 9.386670 -68.402300 11.754300 -0.000000 0.000003 -0.000198 -0.001837 -16.646900 -2.192510 6.469440 -0.000001 169.752000 23.654000 -173.428000 -39.081100 -0.002282 -0.040193 -0.170418 0.331475 27.659000 -40.985400 0.000008 0.000006 3.874410 18.791600 -69.403900 -11.754300 -0.000006 -0.000006 -0.001754 -0.025600 -17.614000
0.000000 0.000000 0.000000 0.000000 0.000000 -0.000000 -0.012348 91.311100 -1.238000 90.435500 -1.454920 13.866200 15.735700 0.000005 -0.000001 87.910800 80.010500 -89.250400 8.984550 -0.406207 -0.000000 12.192800 -0.773465 -2.596150 16.377300 -0.000001 -0.000001 16.817200 -1.394500 -4.744870 6.456720 -0.000001 -0.000000 1.754290 -0.010844 -5.383040 12.994200 -0.242716 4.980390 -91.565200 5.999510 -75.349000 5.348090 -0.000007 -0.000001 -62.879500 35.974500 -16.038900 24.328600 0.000019 0.000005 11.100500 24.601600 -25.234100 22.291600 -0.000001 0.000005 9.131350 5.305270 -0.075978 12.994500 -0.242716 -4.980390 88.790700 8.708590 -82.063000 -5.348130 -0.000001 -0.000004 -62.081000 26.628500 -12.660100 -24.328900 0.000322 -0.000009 2.217640 4.538350 -26.090200 -22.291500 -0.000108 -0.000004 15.136000 5.451830 -4.705420 -2.192480 -6.469440 -0.000000 -175.274000 -14.273300 4.513850 39.081100 -0.000007 -0.000012 -0.101877 0.192823 27.849700 40.985400 -0.000006 -0.000013 2.373820 9.236110 -68.453700 11.754300 -0.000000 0.000003 -0.000212 -0.001947 -16.650900 -2.192510 6.469440 -0.000001 169.654000 23.298700 -173.482000 -39.081100 -0.002282 -0.040193 -0.171497 0.332263 27.749100 -40.985400 0.000008 0.000006 3.682400 18.672600 -69.332000 -11.754300 -0.000006 -0.000006 -0.001824 -0.026487 -17.650100
